<svg width="28" height="28" viewBox="0 0 100 50" fill="none" xmlns="http://www.w3.org/2000/svg">
  <defs>
    <linearGradient id="lg-spec" x1="0" y1="0" x2="100" y2="0" gradientUnits="userSpaceOnUse">
      <stop offset="0%" stopColor="#ffdc32" />
      <stop offset="18%" stopColor="#ffa014" />
      <stop offset="36%" stopColor="#ff3c50" />
      <stop offset="52%" stopColor="#c81eb4" />
      <stop offset="68%" stopColor="#8228ff" />
      <stop offset="82%" stopColor="#3c5aff" />
      <stop offset="100%" stopColor="#14d2ff" />
    </linearGradient>
    <filter id="logo-glow" x="-20%" y="-50%" width="140%" height="200%">
      <feGaussianBlur stdDeviation="2.5" result="blur" />
      <feMerge>
        <feMergeNode in="blur" />
        <feMergeNode in="SourceGraphic" />
      </feMerge>
    </filter>
  </defs>
  <path
    d="M 0,25 L 8,25 C 12,25 12,16 16,12 C 20,8 22,8 24,14 C 26,20 26,30 28,36 C 30,42 32,42 34,36 C 36,30 36,12 40,10 C 44,8 46,8 48,18 C 50,28 50,38 54,40 C 58,42 60,38 62,28 C 64,18 64,8 68,8 C 72,8 74,14 76,22 C 78,30 78,36 80,32 C 82,28 84,26 88,25 L 100,25 L 100,25 L 88,25 L 80,25 L 68,25 L 54,25 L 40,25 L 28,25 L 16,25 L 8,25 Z"
    fill="url(#lg-spec)"
    filter="url(#logo-glow)"
    opacity="0.95"
  />
  <line x1="0" y1="25" x2="100" y2="25" stroke="url(#lg-spec)" strokeWidth="0.8" opacity="0.45" />
  <path
    d="M 0,25 L 8,25 C 12,25 12,16 16,12 C 20,8 22,8 24,14 C 26,20 26,30 28,36 C 30,42 32,42 34,36 C 36,30 36,12 40,10 C 44,8 46,8 48,18 C 50,28 50,38 54,40 C 58,42 60,38 62,28 C 64,18 64,8 68,8 C 72,8 74,14 76,22 C 78,30 78,36 80,32 C 82,28 84,26 88,25 L 100,25"
    stroke="white"
    strokeWidth="0.7"
    fill="none"
    opacity="0.4"
  />
</svg>
